<?xml version="1.0" encoding="UTF-8"?>
<!-- Generated by Pixelmator Pro 3.6.14 -->
<svg width="400" height="263" viewBox="0 0 400 263" xmlns="http://www.w3.org/2000/svg">
    <g id="layer-MC0">
        <path id="path1" fill="#4f4c4c" stroke="none" d="M 147.861649 0.171387 L 147.861649 0.200684 L 114.459312 0.200684 L 114.459312 50.005371 C 113.936646 48.556046 113.26149 47.212173 112.424156 45.972168 C 110.218819 42.700165 106.900078 40.284363 102.482742 38.741699 C 105.54541 37.049698 107.884605 34.707413 109.488609 31.726074 C 111.09127 28.750076 111.888992 25.490585 111.888992 21.95459 C 111.888992 19.379929 111.492592 16.967499 110.711266 14.722168 C 109.928596 12.476837 108.684265 10.397934 106.974937 8.481934 C 105.265602 6.497925 103.424454 4.950562 101.467117 3.845215 C 99.505791 2.743896 97.445236 1.934204 95.267906 1.415527 C 93.095901 0.900848 90.84819 0.586639 88.533531 0.47998 C 86.217529 0.365326 83.850723 0.312012 81.428062 0.312012 L 55.88509 0.312012 L 55.88509 18.862793 L 84.207359 18.862793 C 85.274025 18.862793 86.284279 18.938782 87.252281 19.085449 C 88.213608 19.237457 89.068108 19.548279 89.814781 20.022949 C 90.562775 20.502945 91.151787 21.16394 91.578445 22.009277 C 92.007782 22.858612 92.222984 23.943085 92.222984 25.26709 C 92.222984 27.847092 91.436752 29.575836 89.871422 30.458496 C 88.299416 31.341171 86.378792 31.784668 84.092117 31.784668 L 55.88509 31.784668 L 55.88509 49.452637 L 86.558922 49.452637 C 87.762917 49.452637 88.962997 49.545273 90.138992 49.731934 C 91.314995 49.910599 92.348038 50.264236 93.234695 50.774902 C 94.126701 51.288239 94.841469 52.027893 95.369469 52.983887 C 95.908134 53.941223 96.178062 55.157043 96.178062 56.630371 C 96.178062 58.175705 95.908134 59.463608 95.369469 60.495605 C 94.841469 61.527603 94.126701 62.336777 93.234695 62.919434 C 92.884033 63.154099 92.513321 63.354675 92.125328 63.534668 L 94.219078 82.57959 C 94.856407 82.486267 95.495369 82.376892 96.123367 82.247559 C 98.226036 81.803558 100.274475 81.107849 102.271812 80.151855 C 104.263809 79.194519 106.293655 77.794678 108.361656 75.950684 C 110.854988 73.816025 112.708862 71.112793 113.922195 67.835449 C 114.119537 67.307449 114.292641 66.771759 114.459312 66.239746 L 114.459312 83.019043 L 166.71907 83.019043 L 166.71907 64.472168 L 180.648758 83.020996 L 206.049164 83.020996 L 206.049164 83.018997 L 182.498367 54.743652 C 185.877045 54.228989 188.920181 53.177979 191.617523 51.591309 C 194.312164 50.009979 196.583344 48.057175 198.430023 45.73584 C 200.271347 43.418503 201.678909 40.804718 202.642914 37.894043 C 203.602905 34.987381 204.088226 31.949387 204.088226 28.782715 C 204.088226 24.43605 203.181366 20.255035 201.373367 16.241699 C 199.557373 12.228363 196.885941 8.823578 193.349945 6.024902 C 191.503265 4.627563 189.502655 3.541138 187.347977 2.765137 C 185.190643 1.994476 182.959457 1.406891 180.648758 0.997559 C 178.339432 0.594879 176.008301 0.35675 173.668289 0.280762 C 171.318954 0.210083 169.026535 0.171387 166.797195 0.171387 Z M 206.049164 83.019043 L 253.431976 83.019043 L 253.431976 64.36084 L 226.463226 64.36084 L 226.463226 0.200684 L 206.049164 0.200684 Z M 256.176117 0.200684 L 256.176117 83.019043 L 276.596008 83.019043 L 276.596008 0.200684 Z M 280.217102 0.202637 L 280.217102 83.01709 L 300.916321 83.01709 L 300.916321 32.776855 L 301.24054 32.554199 L 331.697601 83.01709 L 349.547211 83.01709 L 349.547211 0.202637 L 330.738617 0.202637 L 330.738617 51.989746 L 330.523773 52.101074 L 299.525726 0.202637 Z M 164.28157 18.73584 C 167.838913 18.73584 172.279419 18.932785 174.010086 19.335449 C 175.742081 19.742126 177.260071 20.385666 178.566727 21.270996 C 179.880066 22.152328 180.919205 23.31485 181.685867 24.749512 C 182.459213 26.185516 182.842117 27.938889 182.842117 29.997559 C 182.842117 34.266891 181.476471 37.304169 178.744476 39.11084 C 176.007126 40.916168 172.571091 41.815918 168.41243 41.815918 L 150.408524 41.815918 L 150.408524 31.67334 L 134.019852 31.67334 L 134.019852 18.753418 L 158.816727 18.753418 L 158.816727 18.737793 C 161.102066 18.735092 163.150909 18.735794 164.28157 18.735794 Z M 150.408524 42.749512 L 166.71907 64.468262 L 134.019852 64.468262 L 134.019852 50.335449 L 150.408524 50.335449 Z M 92.123367 63.532715 C 91.522041 63.812714 90.882492 64.036255 90.187828 64.190918 C 89.050491 64.454926 87.840256 64.583496 86.558922 64.583496 L 55.88509 64.583496 L 55.88509 83.020996 L 82.174156 83.020996 C 84.811485 83.020996 87.265869 83.000977 89.547195 82.966309 C 89.776535 82.958313 89.998268 82.944305 90.224937 82.938965 Z M 136.597977 88.747559 L 136.597977 173.634277 L 156.988602 173.634277 L 156.988602 107.638184 L 169.308914 107.638184 C 176.222244 107.638184 183.256195 108.726624 183.256195 117.563965 C 183.256195 126.286621 176.80928 127.858887 170.015945 127.858887 L 159.744461 127.858887 L 159.744461 146.993652 L 170.71907 146.993652 C 179.744415 146.993652 187.596054 146.027786 194.512054 139.487793 C 200.488052 134.15979 203.301117 125.07135 203.301117 117.200684 C 203.301117 108.483353 200.137787 100.25267 193.689774 94.92334 C 186.893784 88.992676 176.691559 88.747559 168.254227 88.747559 Z M 206.049164 88.866699 L 206.049164 173.63623 L 276.594086 173.63623 L 276.594086 154.620605 L 226.094086 154.620605 L 226.094086 140.210449 L 256.174164 140.210449 L 256.174164 121.081543 L 226.094086 121.081543 L 226.094086 107.876465 L 276.594086 107.876465 L 276.594086 88.866699 Z M 280.217102 88.870605 L 280.217102 173.63623 L 300.916321 173.63623 L 300.916321 122.210449 L 301.24054 121.981934 L 331.697601 173.63623 L 349.547211 173.63623 L 349.547211 88.870605 L 330.738617 88.870605 L 330.738617 141.876465 L 330.523773 141.989746 L 299.525726 88.870605 Z M 89.930016 88.92334 C 77.327347 89.477997 66.385742 95.130875 58.719074 105.581528 C 56.489742 108.362869 54.61554 111.632996 53.560871 114.659668 C 51.332874 120.352997 50.392902 126.041061 50.392902 132.101059 C 50.392902 152.917053 65.247299 169.303452 84.181969 172.890121 L 85.564781 152.263168 C 76.295448 149.425842 70.672203 140.79837 70.672203 130.9077 C 70.672203 120.418365 77.366013 111.253357 87.930016 109.366699 Z M 94.586266 88.952637 L 96.847984 109.530762 C 107.101311 111.800079 113.572594 121.183121 113.572594 131.237778 C 113.572594 140.491119 107.9851 149.161179 99.162437 152.15184 L 100.586266 172.765137 C 119.574265 168.877136 133.853836 152.277405 133.853836 131.253418 C 133.853836 107.940063 116.478264 90.248627 94.586266 88.952637 Z M 280.217102 178.733887 L 280.217102 261.444824 L 299.025726 261.444824 L 299.025726 249.51709 L 320.496429 249.51709 L 326.992523 261.444824 L 349.547211 261.444824 L 298.92804 178.733887 Z M 184.594086 179.478027 L 133.971024 262.188965 L 156.525711 262.188965 L 163.023758 250.26123 L 184.496414 250.26123 L 184.496414 262.188965 L 203.301117 262.188965 L 203.301117 179.478027 Z M 55.88509 179.482025 L 55.88509 198.032806 L 82.697594 198.032806 L 83.941734 179.482025 Z M 206.049164 179.482025 L 206.049164 198.028915 L 231.435867 198.028915 L 231.435867 262.300385 L 251.855804 262.300385 L 251.855804 198.028915 L 277.469086 198.028915 L 277.469086 179.482025 Z M 100.846031 179.495728 L 102.131187 198.030884 L 102.933922 198.030884 C 106.352585 198.030884 109.292274 198.618561 111.752281 199.794556 C 114.20961 200.977234 116.222008 202.579163 117.791344 204.603165 C 119.358009 206.629822 120.519287 209.038239 121.265953 211.835587 C 122.015289 214.635574 122.387047 217.688873 122.387047 221.003555 C 122.387047 224.311554 122.032639 227.370285 121.320641 230.167603 C 120.605972 232.964935 119.464188 235.373459 117.894859 237.396118 C 116.328194 239.426788 114.312416 240.988068 111.857742 242.093384 C 109.971077 242.941391 107.775436 243.454651 105.287437 243.651978 L 106.568687 262.118774 C 117.408684 261.320099 125.958366 257.866882 132.221024 251.753555 C 139.419693 244.724213 143.017899 234.364227 143.017899 220.669556 C 143.017899 216.030899 142.447052 211.523453 141.303055 207.146118 C 140.164383 202.764786 138.27623 198.659058 135.642899 194.829727 C 133.358902 191.592392 130.905228 188.959091 128.267899 186.939087 C 125.629234 184.915085 122.829987 183.346451 119.875328 182.243774 C 116.917992 181.137115 113.783119 180.404129 110.467117 180.034805 C 107.401787 179.696136 104.187363 179.518402 100.846031 179.495728 Z M 299.025726 209.655884 L 299.322571 209.655884 L 311.529633 232.734024 L 299.025726 232.734024 Z M 184.197586 210.400024 L 184.496414 210.400024 L 184.496414 233.478165 L 171.986649 233.478165 Z M 55.88509 243.747559 L 55.88509 262.300293 L 78.387047 262.300293 L 79.633141 243.747559 Z"/>
    </g>
    <g id="Group">
        <path id="Rectangle" fill="#ed230d" fill-rule="evenodd" stroke="#ffffff" stroke-width="3.91863" stroke-linecap="round" stroke-linejoin="round" d="M 26.397118 214.335236 L 390.438599 150.144897 L 373.192719 52.338699 L 9.151246 116.529037 Z"/>
        <text id="Register" transform="matrix(0.984808 -0.173648 0.173648 0.984808 -19.671481 37.15394)" xml:space="preserve" x="31.674976" y="160" font-family="American Typewriter" font-size="83.597437" fill="#ffffff">Register</text>
    </g>
</svg>
